<svg width="21" height="23" viewBox="0 0 21 23" fill="none" xmlns="http://www.w3.org/2000/svg">
<path d="M16.5002 0.5C16.815 0.5 17.1112 0.648585 17.3 0.900391L20.3 4.90039C20.3016 4.90248 20.3024 4.90513 20.304 4.90723C20.3937 5.02864 20.4563 5.17049 20.4836 5.3252C20.4855 5.33558 20.487 5.34599 20.4885 5.35645C20.4953 5.40339 20.5002 5.45118 20.5002 5.5V19.5C20.5002 20.2957 20.1839 21.0585 19.6213 21.6211C19.0587 22.1837 18.2959 22.5 17.5002 22.5H3.50024C2.70459 22.5 1.94176 22.1837 1.37915 21.6211C0.816541 21.0585 0.500244 20.2957 0.500244 19.5V5.5C0.500244 5.45123 0.50424 5.40335 0.510986 5.35645C0.512508 5.346 0.514019 5.33557 0.515869 5.3252C0.543132 5.17062 0.606007 5.02859 0.695557 4.90723C0.697217 4.90497 0.698759 4.90263 0.700439 4.90039L3.70044 0.900391L3.77563 0.810547C3.9632 0.61339 4.22476 0.5 4.50024 0.5H16.5002ZM2.50024 19.5C2.50024 19.7652 2.60568 20.0195 2.79321 20.207C2.98075 20.3946 3.23503 20.5 3.50024 20.5H17.5002C17.7655 20.5 18.0197 20.3946 18.2073 20.207C18.3948 20.0195 18.5002 19.7652 18.5002 19.5V6.5H2.50024V19.5ZM14.5002 8.5C15.0525 8.5 15.5002 8.94771 15.5002 9.5C15.5002 10.8261 14.9731 12.0975 14.0354 13.0352C13.1563 13.9142 11.9841 14.4328 10.7483 14.4941L10.5002 14.5C9.17416 14.5 7.90277 13.9728 6.96509 13.0352C6.02741 12.0975 5.50024 10.8261 5.50024 9.5C5.50024 8.94771 5.94796 8.5 6.50024 8.5C7.05253 8.5 7.50024 8.94771 7.50024 9.5C7.50024 10.2956 7.81654 11.0585 8.37915 11.6211C8.94176 12.1837 9.70459 12.5 10.5002 12.5L10.7971 12.4854C11.4838 12.4171 12.1291 12.1133 12.6213 11.6211C13.1839 11.0585 13.5002 10.2956 13.5002 9.5C13.5002 8.94771 13.948 8.5 14.5002 8.5ZM3.49927 4.5H17.5012L16.0012 2.5H4.99927L3.49927 4.5Z" fill="#3B2519"/>
</svg>
