<svg width="20" height="22" viewBox="0 0 20 22" fill="none" xmlns="http://www.w3.org/2000/svg">
<path d="M16 0C16.3148 0 16.611 0.148585 16.7998 0.400391L19.7998 4.40039C19.8014 4.40248 19.8022 4.40513 19.8037 4.40723C19.8934 4.52864 19.9561 4.67049 19.9834 4.8252C19.9853 4.83558 19.9868 4.84599 19.9883 4.85645C19.995 4.90339 20 4.95118 20 5V19C20 19.7957 19.6837 20.5585 19.1211 21.1211C18.5585 21.6837 17.7957 22 17 22H3C2.20435 22 1.44151 21.6837 0.878906 21.1211C0.316297 20.5585 0 19.7957 0 19V5C0 4.95123 0.00399599 4.90335 0.0107422 4.85645C0.0122638 4.846 0.0137751 4.83557 0.015625 4.8252C0.0428876 4.67062 0.105763 4.52859 0.195312 4.40723C0.196973 4.40497 0.198515 4.40263 0.200195 4.40039L3.2002 0.400391L3.27539 0.310547C3.46295 0.11339 3.72451 0 4 0H16ZM2 19C2 19.2652 2.10543 19.5195 2.29297 19.707C2.48051 19.8946 2.73478 20 3 20H17C17.2652 20 17.5195 19.8946 17.707 19.707C17.8946 19.5195 18 19.2652 18 19V6H2V19ZM14 8C14.5523 8 15 8.44771 15 9C15 10.3261 14.4728 11.5975 13.5352 12.5352C12.6561 13.4142 11.4838 13.9328 10.248 13.9941L10 14C8.67392 14 7.40253 13.4728 6.46484 12.5352C5.52716 11.5975 5 10.3261 5 9C5 8.44771 5.44772 8 6 8C6.55228 8 7 8.44771 7 9C7 9.79565 7.3163 10.5585 7.87891 11.1211C8.44151 11.6837 9.20435 12 10 12L10.2969 11.9854C10.9835 11.9171 11.6289 11.6133 12.1211 11.1211C12.6837 10.5585 13 9.79565 13 9C13 8.44771 13.4477 8 14 8ZM2.99902 4H17.001L15.501 2H4.49902L2.99902 4Z" fill="#3B2519"/>
</svg>
