<svg width="23" height="24" viewBox="0 0 23 24" fill="none" xmlns="http://www.w3.org/2000/svg">
<path d="M6.10994 1.54734C6.83443 1.54256 7.53605 1.80039 8.08553 2.27292C8.56842 2.68821 8.90553 3.24438 9.05037 3.85984L9.10018 4.12741L9.10116 4.1362C9.21779 5.02053 9.43405 5.8893 9.74569 6.72507C9.9475 7.26195 9.99129 7.84577 9.87166 8.40671C9.75204 8.96762 9.47413 9.48229 9.07088 9.89011L8.35116 10.6098C9.52701 12.4547 11.0923 14.0188 12.9371 15.1948L13.6568 14.476C14.0646 14.0729 14.5794 13.7949 15.1402 13.6753C15.7002 13.5558 16.2828 13.5994 16.8189 13.8003C17.6555 14.1124 18.5255 14.329 19.4107 14.4458L19.4195 14.4467C20.1481 14.5495 20.8139 14.9167 21.2896 15.478C21.76 16.0331 22.0106 16.7404 21.9986 17.4673L21.9996 20.4634L21.9967 20.6196C21.9791 20.9839 21.8951 21.3423 21.7486 21.6772C21.5813 22.06 21.3357 22.4036 21.0279 22.686C20.7202 22.9683 20.357 23.183 19.9615 23.3169C19.5658 23.4507 19.1461 23.5009 18.7301 23.4634C18.7241 23.4628 18.7175 23.4621 18.7115 23.4614C15.4792 23.1101 12.3741 22.0058 9.64608 20.2368C7.10958 18.6234 4.95864 16.4713 3.34627 13.9341C1.57375 11.1953 0.470078 8.07666 0.12557 4.83249C0.125036 4.82744 0.124073 4.82192 0.123617 4.81687C0.086218 4.40223 0.13624 3.98387 0.269124 3.58933C0.402056 3.19487 0.61546 2.83232 0.896077 2.52487C1.17687 2.21727 1.519 1.97148 1.89998 1.8032C2.28089 1.63497 2.69257 1.54774 3.10897 1.54734H6.10994ZM3.00741 3.5532C2.90424 3.56404 2.80288 3.59021 2.7076 3.6323C2.58065 3.68839 2.46719 3.771 2.37362 3.87351C2.28011 3.97596 2.20894 4.09656 2.16463 4.228C2.122 4.35457 2.10492 4.48848 2.11483 4.62155L2.18123 5.17038C2.52878 7.72514 3.39835 10.181 4.73592 12.3852L5.02889 12.854L5.03377 12.8608C6.49033 15.153 8.43397 17.0966 10.7262 18.5532L10.734 18.5581C13.1954 20.1543 15.9965 21.1519 18.9127 21.4712C19.0505 21.4833 19.1898 21.4667 19.3209 21.4223C19.4526 21.3777 19.5739 21.3064 19.6764 21.2124C19.7788 21.1183 19.8608 21.0039 19.9166 20.8764C19.9724 20.7488 20.0002 20.6104 19.9996 20.4712V17.4673C19.9996 17.4591 20.0004 17.451 20.0006 17.4428C20.0067 17.1976 19.9218 16.9581 19.7633 16.771C19.6066 16.5862 19.3884 16.4641 19.149 16.4282C18.1144 16.2917 17.0984 16.0391 16.1207 15.6743L16.1178 15.6733C15.9391 15.6062 15.7449 15.5916 15.5582 15.6313C15.3713 15.6712 15.199 15.7636 15.0631 15.8979L13.7974 17.1645C13.4791 17.4828 12.9866 17.5491 12.5953 17.3266C9.93542 15.8141 7.73276 13.6115 6.2203 10.9516C5.99791 10.5603 6.06512 10.0687 6.38338 9.75046L7.64803 8.48386C7.78243 8.34795 7.87571 8.17665 7.91561 7.98972C7.95549 7.80274 7.94089 7.60813 7.87362 7.42917L7.87264 7.42722C7.50885 6.4523 7.25649 5.43922 7.11971 4.40769L7.10311 4.31784C7.05482 4.11292 6.94256 3.92786 6.78182 3.78952C6.59784 3.6313 6.36236 3.54495 6.11971 3.54734H3.11092L3.00741 3.5532ZM13.0689 5.35593C13.1747 4.81387 13.6997 4.46013 14.2418 4.56589C15.4138 4.7946 16.4912 5.36803 17.3355 6.21237C18.1798 7.05675 18.7524 8.13417 18.981 9.30612C19.0867 9.84798 18.7337 10.373 18.192 10.479C17.6499 10.5847 17.1239 10.231 17.0181 9.68894C16.8657 8.90755 16.4834 8.18938 15.9205 7.62644C15.3577 7.06371 14.6401 6.68127 13.859 6.52878C13.3169 6.42302 12.9632 5.89799 13.0689 5.35593ZM14.1607 0.553195C16.4152 0.803714 18.5176 1.81356 20.1226 3.41648C21.7278 5.01957 22.7404 7.12111 22.9937 9.37546C23.0554 9.92421 22.6606 10.4191 22.1119 10.4809C21.5631 10.5426 21.0682 10.1479 21.0064 9.59909C20.8038 7.79555 19.9937 6.11403 18.7096 4.83152C17.4256 3.54922 15.7436 2.74194 13.94 2.54148C13.3911 2.4805 12.9953 1.98587 13.0562 1.43698C13.1172 0.888076 13.6118 0.492216 14.1607 0.553195Z" fill="#10B75A"/>
</svg>
