<svg width="18" height="20" viewBox="0 0 18 20" fill="none" xmlns="http://www.w3.org/2000/svg">
<path fill-rule="evenodd" clip-rule="evenodd" d="M12.3333 0.833496C12.7936 0.833496 13.1667 1.20659 13.1667 1.66683V2.50016H14.8333C16.214 2.50016 17.3333 3.61945 17.3333 5.00016V16.6668C17.3333 18.0475 16.214 19.1668 14.8333 19.1668H3.16666C1.78594 19.1668 0.666656 18.0475 0.666656 16.6668V5.00016C0.666656 3.61945 1.78594 2.50016 3.16666 2.50016H4.83332V1.66683C4.83332 1.20659 5.20642 0.833496 5.66666 0.833496C6.12689 0.833496 6.49999 1.20659 6.49999 1.66683V2.50016H11.5V1.66683C11.5 1.20659 11.8731 0.833496 12.3333 0.833496ZM2.33332 9.16683V16.6668C2.33332 17.1271 2.70642 17.5002 3.16666 17.5002H14.8333C15.2936 17.5002 15.6667 17.1271 15.6667 16.6668V9.16683H2.33332ZM3.16666 4.16683C2.70642 4.16683 2.33332 4.53993 2.33332 5.00016V7.50016H15.6667V5.00016C15.6667 4.53993 15.2936 4.16683 14.8333 4.16683H13.1667V5.00016C13.1667 5.4604 12.7936 5.8335 12.3333 5.8335C11.8731 5.8335 11.5 5.4604 11.5 5.00016V4.16683H6.49999V5.00016C6.49999 5.4604 6.12689 5.8335 5.66666 5.8335C5.20642 5.8335 4.83332 5.4604 4.83332 5.00016V4.16683H3.16666Z" fill="#3B2519"/>
</svg>
