<svg width="28" height="28" viewBox="0 0 28 28" fill="none" xmlns="http://www.w3.org/2000/svg">
<g clip-path="url(#clip0_1_967)">
<path d="M14.0312 6.78125C17.9688 6.78125 21.2188 10.0312 21.2188 13.9688C21.2188 17.9688 17.9688 21.1562 14.0312 21.1562C10.0312 21.1562 6.84375 17.9688 6.84375 13.9688C6.84375 10.0312 10.0312 6.78125 14.0312 6.78125ZM14.0312 18.6562C16.5938 18.6562 18.6562 16.5938 18.6562 13.9688C18.6562 11.4062 16.5938 9.34375 14.0312 9.34375C11.4062 9.34375 9.34375 11.4062 9.34375 13.9688C9.34375 16.5938 11.4688 18.6562 14.0312 18.6562ZM23.1562 6.53125C23.1562 7.46875 22.4062 8.21875 21.4688 8.21875C20.5312 8.21875 19.7812 7.46875 19.7812 6.53125C19.7812 5.59375 20.5312 4.84375 21.4688 4.84375C22.4062 4.84375 23.1562 5.59375 23.1562 6.53125ZM27.9062 8.21875C28.0312 10.5312 28.0312 17.4688 27.9062 19.7812C27.7812 22.0312 27.2812 23.9688 25.6562 25.6562C24.0312 27.2812 22.0312 27.7812 19.7812 27.9062C17.4688 28.0312 10.5312 28.0312 8.21875 27.9062C5.96875 27.7812 4.03125 27.2812 2.34375 25.6562C0.71875 23.9688 0.21875 22.0312 0.09375 19.7812C-0.03125 17.4688 -0.03125 10.5312 0.09375 8.21875C0.21875 5.96875 0.71875 3.96875 2.34375 2.34375C4.03125 0.71875 5.96875 0.21875 8.21875 0.09375C10.5312 -0.03125 17.4688 -0.03125 19.7812 0.09375C22.0312 0.21875 24.0312 0.71875 25.6562 2.34375C27.2812 3.96875 27.7812 5.96875 27.9062 8.21875ZM24.9062 22.2188C25.6562 20.4062 25.4688 16.0312 25.4688 13.9688C25.4688 11.9688 25.6562 7.59375 24.9062 5.71875C24.4062 4.53125 23.4688 3.53125 22.2812 3.09375C20.4062 2.34375 16.0312 2.53125 14.0312 2.53125C11.9688 2.53125 7.59375 2.34375 5.78125 3.09375C4.53125 3.59375 3.59375 4.53125 3.09375 5.71875C2.34375 7.59375 2.53125 11.9688 2.53125 13.9688C2.53125 16.0312 2.34375 20.4062 3.09375 22.2188C3.59375 23.4688 4.53125 24.4062 5.78125 24.9062C7.59375 25.6562 11.9688 25.4688 14.0312 25.4688C16.0312 25.4688 20.4062 25.6562 22.2812 24.9062C23.4688 24.4062 24.4688 23.4688 24.9062 22.2188Z" fill="url(#paint0_linear_1_967)"/>
</g>
<defs>
<linearGradient id="paint0_linear_1_967" x1="14" y1="0" x2="14" y2="28" gradientUnits="userSpaceOnUse">
<stop stop-color="#D92B7D"/>
<stop offset="1" stop-color="#EE6E3E"/>
</linearGradient>
<clipPath id="clip0_1_967">
<rect width="28" height="28" fill="white"/>
</clipPath>
</defs>
</svg>
