<svg width="60" height="60" viewBox="0 0 60 60" fill="none" xmlns="http://www.w3.org/2000/svg">
<g clip-path="url(#clip0_14_704)">
<path fill-rule="evenodd" clip-rule="evenodd" d="M26.129 44.5161C30.3968 44.5161 33.871 47.9903 33.871 52.2581C33.871 56.5258 30.3968 60 26.129 60C21.8613 60 18.3871 56.5258 18.3871 52.2581C18.3871 47.9903 21.8613 44.5161 26.129 44.5161ZM24.1935 53.2258C23.129 53.2258 22.2581 54.0968 22.2581 55.1613V56.5742C23.2839 57.4935 24.6387 58.0645 26.129 58.0645C27.6194 58.0645 28.9742 57.4935 30 56.5742V55.1613C30 54.0968 29.129 53.2258 28.0645 53.2258H24.1935ZM26.129 47.4194C24.7935 47.4194 23.7097 48.5032 23.7097 49.8387C23.7097 51.1742 24.7935 52.2581 26.129 52.2581C27.4645 52.2581 28.5484 51.1742 28.5484 49.8387C28.5484 48.5032 27.4645 47.4194 26.129 47.4194Z" fill="#FF9603"/>
<path fill-rule="evenodd" clip-rule="evenodd" d="M52.2581 34.8387C56.5258 34.8387 60 38.3129 60 42.5806C60 46.8484 56.5258 50.3226 52.2581 50.3226C47.9903 50.3226 44.5161 46.8484 44.5161 42.5806C44.5161 38.3129 47.9903 34.8387 52.2581 34.8387ZM50.3226 43.5484C49.2581 43.5484 48.3871 44.4194 48.3871 45.4839V46.8967C49.4129 47.8161 50.7677 48.3871 52.2581 48.3871C53.7484 48.3871 55.1032 47.8161 56.129 46.8967V45.4839C56.129 44.4194 55.2581 43.5484 54.1935 43.5484H50.3226ZM52.2581 37.7419C50.9226 37.7419 49.8387 38.8258 49.8387 40.1613C49.8387 41.4968 50.9226 42.5806 52.2581 42.5806C53.5935 42.5806 54.6774 41.4968 54.6774 40.1613C54.6774 38.8258 53.5935 37.7419 52.2581 37.7419Z" fill="#FF9603"/>
<path d="M42.8906 45.0198C43.0551 45.6583 43.278 46.2579 43.5682 46.8287L35.4974 49.8198C35.3329 49.1812 35.1101 48.5809 34.8198 48.01L42.8906 45.0198Z" fill="#FF9603"/>
<path d="M20.2063 44.6125C19.6934 45.0093 19.2193 45.4553 18.7935 45.9488L13.6646 40.5488C14.1774 40.1521 14.6518 39.7068 15.0775 39.2134L20.2063 44.6125Z" fill="#FF9603"/>
<path d="M28.1912 40.0261C28.8006 40.2389 29.4295 40.3934 30.068 40.4902L29.4008 43.1515C28.8008 42.9289 28.1714 42.7745 27.523 42.6874L28.1912 40.0261Z" fill="#FF9603"/>
<path fill-rule="evenodd" clip-rule="evenodd" d="M7.74194 25.1613C12.0097 25.1613 15.4839 28.6355 15.4839 32.9032C15.4839 37.171 12.0097 40.6452 7.74194 40.6452C3.47419 40.6452 0 37.171 0 32.9032C0 28.6355 3.47419 25.1613 7.74194 25.1613ZM5.80645 33.871C4.74194 33.871 3.87097 34.7419 3.87097 35.8064V37.2193C4.89677 38.1387 6.25161 38.7097 7.74194 38.7097C9.23226 38.7097 10.5871 38.1387 11.6129 37.2193V35.8064C11.6129 34.7419 10.7419 33.871 9.67742 33.871H5.80645ZM7.74194 28.0645C6.40645 28.0645 5.32258 29.1484 5.32258 30.4839C5.32258 31.8194 6.40645 32.9032 7.74194 32.9032C9.07742 32.9032 10.1613 31.8194 10.1613 30.4839C10.1613 29.1484 9.07742 28.0645 7.74194 28.0645Z" fill="#FF9603"/>
<path fill-rule="evenodd" clip-rule="evenodd" d="M31.9355 19.3548C37.2677 19.3548 41.6129 23.7 41.6129 29.0323C41.6129 34.3645 37.2677 38.7097 31.9355 38.7097C26.6032 38.7097 22.2581 34.3645 22.2581 29.0323C22.2581 23.7 26.6032 19.3548 31.9355 19.3548ZM29.7874 30.1068C28.6067 30.1068 27.6383 31.0743 27.6383 32.2549V35.4577C28.8673 36.2803 30.3484 36.7647 31.9355 36.7647C33.5226 36.7647 35.0036 36.2803 36.2327 35.4577V32.2549C36.2327 31.0743 35.2643 30.1068 34.0836 30.1068H29.7874ZM31.9355 23.652C30.4452 23.652 29.245 24.8515 29.2449 26.3417C29.2449 27.832 30.4452 29.0323 31.9355 29.0323C33.4258 29.0323 34.6261 27.832 34.6261 26.3417C34.6259 24.8515 33.416 23.652 31.9355 23.652Z" fill="#FF9603"/>
<path d="M44.777 36.4359C44.3707 36.9292 44.0127 37.4708 43.7128 38.0415L41.0222 36.2516C41.4287 35.7484 41.7871 35.2062 42.0968 34.645L44.777 36.4359Z" fill="#FF9603"/>
<path d="M53.2258 32.9514C52.9065 32.9224 52.5871 32.9032 52.2581 32.9032C51.929 32.9032 51.6097 32.9224 51.2903 32.9514V23.1776C51.6097 23.2066 51.929 23.2258 52.2581 23.2258C52.5871 23.2258 52.9065 23.2066 53.2258 23.1776V32.9514Z" fill="#FF9603"/>
<path d="M20.3613 29.9036C20.4001 30.5519 20.507 31.2 20.6619 31.8192L17.4005 32.3419C17.3617 31.684 17.2646 31.0454 17.0905 30.4262L20.3613 29.9036Z" fill="#FF9603"/>
<path d="M15.154 15.9195C15.6959 16.2679 16.2673 16.5579 16.8769 16.7805L12.9095 24.7256C12.3676 24.3772 11.7963 24.0872 11.1867 23.8647L15.154 15.9195Z" fill="#FF9603"/>
<path d="M43.7714 18.2038C44.0907 18.7745 44.4584 19.3161 44.8743 19.8094L41.5354 22.5094C41.1678 21.9677 40.7615 21.4646 40.3068 21.0002L43.7714 18.2038Z" fill="#FF9603"/>
<path fill-rule="evenodd" clip-rule="evenodd" d="M52.2581 5.80645C56.5258 5.80645 60 9.28065 60 13.5484C60 17.8161 56.5258 21.2903 52.2581 21.2903C47.9903 21.2903 44.5161 17.8161 44.5161 13.5484C44.5161 9.28065 47.9903 5.80645 52.2581 5.80645ZM50.3226 14.5161C49.2581 14.5161 48.3871 15.3871 48.3871 16.4516V17.8645C49.4129 18.7838 50.7677 19.3548 52.2581 19.3548C53.7484 19.3548 55.1032 18.7838 56.129 17.8645V16.4516C56.129 15.3871 55.2581 14.5161 54.1935 14.5161H50.3226ZM52.2581 8.70968C50.9226 8.70968 49.8387 9.79355 49.8387 11.129C49.8387 12.4645 50.9226 13.5484 52.2581 13.5484C53.5935 13.5484 54.6774 12.4645 54.6774 11.129C54.6774 9.79355 53.5935 8.70968 52.2581 8.70968Z" fill="#FF9603"/>
<path d="M27.2414 18.406C26.6511 18.6673 26.08 18.9874 25.5478 19.3454L24.0773 16.6548C24.6772 16.4129 25.2481 16.0935 25.7803 15.7258L27.2414 18.406Z" fill="#FF9603"/>
<path fill-rule="evenodd" clip-rule="evenodd" d="M20.3226 0C24.5903 0 28.0645 3.47419 28.0645 7.74194C28.0645 12.0097 24.5903 15.4839 20.3226 15.4839C16.0548 15.4839 12.5806 12.0097 12.5806 7.74194C12.5806 3.47419 16.0548 0 20.3226 0ZM18.3871 8.70968C17.3226 8.70968 16.4516 9.58064 16.4516 10.6452V12.058C17.4774 12.9774 18.8323 13.5484 20.3226 13.5484C21.8129 13.5484 23.1677 12.9774 24.1935 12.058V10.6452C24.1935 9.58064 23.3226 8.70968 22.2581 8.70968H18.3871ZM20.3226 2.90323C18.9871 2.90323 17.9032 3.9871 17.9032 5.32258C17.9032 6.65806 18.9871 7.74194 20.3226 7.74194C21.6581 7.74194 22.7419 6.65806 22.7419 5.32258C22.7419 3.9871 21.6581 2.90323 20.3226 2.90323Z" fill="#FF9603"/>
<path d="M43.1704 10.2189C42.9478 10.8189 42.784 11.4579 42.6969 12.1062L29.69 10.1424C29.8545 9.52304 29.9509 8.88386 29.9896 8.22581L43.1704 10.2189Z" fill="#FF9603"/>
</g>
<defs>
<clipPath id="clip0_14_704">
<rect width="60" height="60" fill="white"/>
</clipPath>
</defs>
</svg>
