<svg width="50" height="50" viewBox="0 0 50 50" fill="none" xmlns="http://www.w3.org/2000/svg">
<path fill-rule="evenodd" clip-rule="evenodd" d="M25 12.8037C31.6972 12.8038 37.1337 18.2704 37.1337 25.0003C37.1337 31.7301 31.6973 37.1967 25 37.1968C18.3027 37.1968 12.8664 31.7301 12.8664 25.0003C12.8664 18.2704 18.3027 12.8037 25 12.8037ZM31.4244 20.2828C30.7484 19.6033 29.6499 19.6034 28.9738 20.2828L23.2667 26.0217L21.0263 23.7675C20.3503 23.088 19.2517 23.0881 18.5757 23.7675C17.8975 24.4471 17.8975 25.5534 18.5757 26.233L22.0403 29.7177C22.7185 30.3972 23.8148 30.3972 24.493 29.7177L31.4244 22.7483C32.1024 22.0687 32.1024 20.9645 31.4244 20.2828Z" fill="#FF9603"/>
<path fill-rule="evenodd" clip-rule="evenodd" d="M21.0479 1.24307C23.4248 -0.414342 26.5752 -0.41437 28.9522 1.24307L31.3486 2.91356C31.9314 3.32082 32.6248 3.53646 33.3311 3.53646L36.2627 3.52993C39.2376 3.5256 41.8829 5.42697 42.8404 8.26046L43.6334 10.6105C43.8739 11.3204 44.3355 11.9347 44.9507 12.3616L46.9961 13.7772C49.5615 15.5501 50.6346 18.826 49.6228 21.7834L48.9094 23.8677C48.6581 24.6016 48.6581 25.3989 48.9094 26.1328L49.6228 28.2171C50.6345 31.1747 49.5615 34.4503 46.9961 36.2227L44.9507 37.6384C44.3354 38.0653 43.8739 38.6796 43.6334 39.3895L42.8404 41.7395C41.8826 44.573 39.2374 46.4744 36.2627 46.4701L33.3311 46.4635C32.6248 46.4635 31.9314 46.6792 31.3486 47.0864L28.9522 48.7569C26.5752 50.4144 23.4249 50.4144 21.0479 48.7569L18.6515 47.0864C18.0687 46.6792 17.3774 46.4635 16.669 46.4635L13.7395 46.4701C10.7646 46.4744 8.11657 44.5731 7.15918 41.7395L6.36616 39.3895C6.12564 38.6796 5.66626 38.0653 5.04879 37.6384L3.0034 36.2227C0.438148 34.4499 -0.634403 31.1745 0.377319 28.2171L1.09017 26.1328C1.3415 25.3989 1.34147 24.6017 1.09017 23.8677L0.377319 21.7834C-0.634524 18.8258 0.438026 15.5497 3.0034 13.7772L5.04879 12.3616C5.66631 11.9347 6.12565 11.3205 6.36616 10.6105L7.15918 8.26046C8.1169 5.42695 10.7648 3.52558 13.7395 3.52993L16.669 3.53646C17.3774 3.53645 18.0687 3.32084 18.6515 2.91356L21.0479 1.24307ZM25 9.31895C16.3914 9.31895 9.39958 16.347 9.39958 25.0003C9.39969 33.6535 16.3914 40.6816 25 40.6816C33.6103 40.6815 40.6004 33.6534 40.6005 25.0003C40.6005 16.347 33.6103 9.31899 25 9.31895Z" fill="#FF9603"/>
</svg>
