<svg width="58" height="50" viewBox="0 0 58 50" fill="none" xmlns="http://www.w3.org/2000/svg">
<path fill-rule="evenodd" clip-rule="evenodd" d="M31.9544 5.36892C31.6693 5.48812 31.453 5.72165 31.3547 6.00867C31.2563 6.29815 31.2883 6.61196 31.4431 6.8771L38.7745 19.4443C38.9269 19.7094 39.1874 19.8943 39.4897 19.9551C39.7895 20.0135 40.1017 19.943 40.3475 19.7605C40.4409 19.69 40.5392 19.6267 40.6424 19.5659C41.9917 18.7947 43.7195 19.2521 44.4987 20.59C45.2778 21.9231 44.8133 23.6357 43.4664 24.4068C42.5448 24.9323 41.4486 24.886 40.5982 24.38C40.2639 24.1806 39.8486 24.1781 39.5118 24.3703C39.1726 24.5625 38.9686 24.9201 38.976 25.3069C38.9932 26.2896 38.4845 27.253 37.5652 27.7785C36.2159 28.5496 34.4857 28.0898 33.709 26.7543C32.9274 25.4188 33.3919 23.7087 34.7412 22.9375C34.8445 22.8792 34.9501 22.8281 35.0583 22.7819C35.3409 22.6651 35.5597 22.4316 35.658 22.1445C35.7563 21.8551 35.7243 21.5388 35.5695 21.2761L28.2382 8.70645C28.0858 8.44372 27.8252 8.25885 27.523 8.19803C27.2231 8.13721 26.911 8.20776 26.6652 8.39264C26.5718 8.46318 26.4735 8.52643 26.3702 8.58725C25.0209 9.35598 23.2931 8.89863 22.514 7.56313C21.7349 6.22764 22.1969 4.51749 23.5462 3.74634C24.4679 3.22089 25.5641 3.26711 26.4145 3.7731C26.7487 3.97257 27.1641 3.97501 27.5008 3.78283C27.8376 3.58822 28.044 3.23062 28.0366 2.84627C28.0194 1.8635 28.5282 0.900164 29.4474 0.374685C30.7967 -0.39647 32.5245 0.0608729 33.3037 1.39637C34.0828 2.73187 33.6207 4.44201 32.2714 5.21317C32.1682 5.27398 32.0625 5.32513 31.9544 5.36892Z" fill="#FF9603"/>
<path fill-rule="evenodd" clip-rule="evenodd" d="M24.0181 14.445C21.6782 13.1581 18.8076 13.1581 16.4678 14.445C19.9062 18.2739 19.9062 24.0709 16.4678 27.902C18.8076 29.1889 21.6782 29.1889 24.0181 27.902C20.5797 24.0707 20.5797 18.2736 24.0181 14.445Z" fill="#FF9603"/>
<path fill-rule="evenodd" clip-rule="evenodd" d="M14.5236 15.96C13.1522 17.4294 12.469 19.3025 12.469 21.1732C12.469 23.0438 13.1522 24.9145 14.5236 26.3839C17.2592 23.4452 17.2592 18.8982 14.5236 15.96Z" fill="#FF9603"/>
<path fill-rule="evenodd" clip-rule="evenodd" d="M25.9622 15.96C24.5932 17.4294 23.9099 19.3025 23.9099 21.1732C23.9099 23.0438 24.5932 24.9145 25.9622 26.3839C28.7002 23.4452 28.7002 18.8982 25.9622 15.96Z" fill="#FF9603"/>
<path fill-rule="evenodd" clip-rule="evenodd" d="M55.7306 45.9375H34.1316C33.5885 45.9375 33.1485 46.373 33.1485 46.9106V49.0294C33.1485 49.2872 33.0453 49.5329 32.861 49.7154C32.6766 49.8979 32.4284 50 32.1678 50H25.8319C25.5714 50 25.3231 49.8978 25.1388 49.7154C24.9544 49.5329 24.8512 49.2872 24.8512 49.0294V46.9106C24.8512 46.373 24.4112 45.9375 23.8681 45.9375H2.26915V41.7874H55.731L55.7306 45.9375Z" fill="#FF9603"/>
<path fill-rule="evenodd" clip-rule="evenodd" d="M54.7041 39.8415V35.7206C49.469 35.7814 45.163 34.3438 41.1569 33.5288C37.3596 32.7577 33.8451 32.5825 29.9837 35.2195V39.8415H54.7041Z" fill="#FF9603"/>
<path fill-rule="evenodd" clip-rule="evenodd" d="M28.0175 39.8415V35.2195C24.1563 32.5825 20.6414 32.7577 16.8443 33.5288C12.8381 34.3438 8.532 35.7815 3.29712 35.7206V39.8415H28.0175Z" fill="#FF9603"/>
<path fill-rule="evenodd" clip-rule="evenodd" d="M49.5446 13.9218C51.1152 15.4787 51.1152 18.0062 49.5446 19.5607C49.1612 19.9401 49.1612 20.5556 49.5446 20.9351C49.9305 21.3146 50.5499 21.3146 50.9333 20.9351C53.2706 18.6217 53.2706 14.8632 50.9333 12.5472C50.5498 12.1677 49.9305 12.1677 49.5446 12.5472C49.1612 12.9291 49.1612 13.5424 49.5446 13.9218Z" fill="#FF9603"/>
<path fill-rule="evenodd" clip-rule="evenodd" d="M7.06677 12.5475C4.72693 14.8634 4.72693 18.6217 7.06677 20.9353C7.45019 21.3148 8.06958 21.3148 8.4554 20.9353C8.83881 20.5558 8.83881 19.9404 8.4554 19.5609C6.88241 18.0065 6.88241 15.479 8.4554 13.9221C8.83881 13.5426 8.83881 12.9295 8.4554 12.5477C8.06953 12.1682 7.45014 12.168 7.06677 12.5475Z" fill="#FF9603"/>
<path fill-rule="evenodd" clip-rule="evenodd" d="M53.3026 10.2046C56.95 13.8146 56.95 19.6723 53.3026 23.2824C52.9216 23.6619 52.9216 24.275 53.3026 24.6544C53.686 25.0339 54.3078 25.0339 54.6912 24.6544C59.1029 20.2878 59.1029 13.1989 54.6912 8.83273C54.3078 8.45324 53.686 8.45324 53.3026 8.83273C52.9216 9.21222 52.9216 9.82515 53.3026 10.2046Z" fill="#FF9603"/>
<path fill-rule="evenodd" clip-rule="evenodd" d="M3.30878 8.8327C-1.10293 13.1993 -1.10293 20.2882 3.30878 24.6544C3.6922 25.0339 4.31404 25.0339 4.69741 24.6544C5.07837 24.2749 5.07837 23.6618 4.69741 23.2824C1.05004 19.6723 1.05004 13.8147 4.69741 10.2046C5.07837 9.82507 5.07837 9.21202 4.69741 8.83257C4.31399 8.45309 3.69215 8.45321 3.30878 8.8327Z" fill="#FF9603"/>
</svg>
