<svg width="60" height="54" viewBox="0 0 60 54" fill="none" xmlns="http://www.w3.org/2000/svg">
<path d="M11.4219 32.0074C13.982 32.0075 16.4121 33.1182 18.0824 35.0691L25.0842 43.2335C25.7243 44.0439 25.9943 45.0146 25.8643 45.995C25.8443 46.1551 25.8043 46.2952 25.7643 46.4453L33.6356 46.8855V46.8661C35.5259 46.9662 37.0062 48.527 37.0062 50.4281C37.0061 51.3685 36.6361 52.2691 35.966 52.9494C35.2759 53.6297 34.3757 54 33.4356 54H21.2535C18.9135 53.9999 16.6733 53.2795 14.7831 51.8989L7.46124 46.576C6.95116 46.2058 6.34103 46.0056 5.70095 46.0056H1.00017C0.450216 46.0055 8.9197e-05 45.5553 0 45.0051C0 44.4549 0.450162 44.0047 1.00017 44.0046H5.71095C6.77113 44.0046 7.79128 44.3348 8.65144 44.9651L15.9733 50.288C17.5135 51.4085 19.3539 52.0089 21.2642 52.0089H33.4462C33.8661 52.0089 34.2564 51.8488 34.5664 51.5487C34.8464 51.2485 35.0164 50.8582 35.0165 50.4381C35.0165 49.6077 34.3662 48.9174 33.5362 48.8772L24.5141 48.3669C24.4842 48.3869 24.464 48.407 24.4441 48.427C23.804 48.9071 23.0337 49.1474 22.2637 49.1474C21.3237 49.1473 20.3834 48.7871 19.6833 48.0868L14.303 42.7039C13.9129 42.3137 13.913 41.6833 14.303 41.2931C14.693 40.903 15.3226 40.903 15.7126 41.2931L21.0935 46.676C21.6635 47.2463 22.5938 47.3162 23.2439 46.8261C23.3338 46.7661 23.4139 46.6859 23.4839 46.606C23.7039 46.3559 23.8439 46.0556 23.884 45.7255C23.944 45.2853 23.824 44.845 23.5439 44.4948L16.5728 36.3698C15.2826 34.8691 13.4122 34.0085 11.4319 34.0085H1.00017C0.450072 34.0085 0 33.5583 0 33.008C8.52306e-05 32.4577 0.450124 32.0074 1.00017 32.0074H11.4219Z" fill="#FF9603"/>
<path d="M32.4554 14.9982C36.6262 14.9982 40.0073 18.41 40.0073 22.6023C40.0073 30.7565 28.0547 38.531 27.5446 38.8511C27.3846 38.9611 27.1945 39.0112 27.0045 39.0112C26.8145 39.0112 26.6244 38.9612 26.4644 38.8511C25.9526 38.5299 14.0023 30.7559 14.0023 22.6023C14.0023 18.41 17.3829 14.9982 21.5536 14.9982C23.6339 14.9982 25.5943 15.8587 27.0045 17.3494C28.4147 15.8587 30.3751 14.9982 32.4554 14.9982Z" fill="#FF9603"/>
<path d="M38.7358 0C41.0759 3.6081e-05 43.316 0.720462 45.2063 2.10114L52.5281 7.42404C53.0382 7.79415 53.6484 7.99435 54.2884 7.99435H58.9892C59.5393 7.99438 59.9894 8.44461 59.9894 8.99489C59.9892 9.54505 59.5392 9.9954 58.9892 9.99544H54.2884C53.2283 9.99544 52.2081 9.66516 51.3479 9.03491L44.0261 3.71202C42.4859 2.59141 40.6555 1.99108 38.7352 1.99108H26.5538C26.1338 1.99108 25.7437 2.15117 25.4336 2.45133C25.1536 2.74154 24.9835 3.13171 24.9835 3.55193C24.9837 4.38229 25.6337 5.07276 26.4638 5.11278L35.4853 5.62306C35.5153 5.60307 35.5353 5.58302 35.5553 5.56303C37.0055 4.48241 39.0559 4.6325 40.3261 5.90321L45.707 11.2861C46.0969 11.6763 46.0969 12.3068 45.707 12.6969C45.317 13.087 44.6868 13.0869 44.2968 12.6969L38.9159 7.31398C38.3458 6.74367 37.4156 6.67363 36.7655 7.1639C36.6855 7.22392 36.6255 7.29398 36.5555 7.36401C36.5455 7.37403 36.5354 7.39404 36.5155 7.40403C36.3055 7.65416 36.1654 7.94436 36.1254 8.2745C36.0655 8.71467 36.1855 9.15503 36.4655 9.50517L43.4366 17.6396C44.7268 19.1403 46.5972 20.0009 48.5775 20.0009H59.0092L58.9998 20.0109C59.5498 20.011 60 20.4612 60 21.0114C59.9998 21.5615 59.5497 22.0118 58.9998 22.012H48.5675C46.0074 22.0119 43.5772 20.9012 41.907 18.9503L34.9052 10.7859C34.2651 9.97551 33.9951 9.00478 34.1251 8.02436C34.1451 7.86437 34.1851 7.72411 34.2251 7.57412L26.3538 7.13388C24.4636 7.0338 22.9833 5.4729 22.9832 3.57194C22.9832 2.63152 23.3533 1.73093 24.0234 1.05057C24.7135 0.370214 25.6136 0 26.5538 0H38.7358Z" fill="#FF9603"/>
</svg>
