<svg width="16" height="16" viewBox="0 0 16 16" fill="none" xmlns="http://www.w3.org/2000/svg">
<path d="M8 2.90909C8.40166 2.90909 8.72727 3.2347 8.72727 3.63636V7.55043L11.2344 8.80398C11.5936 8.98361 11.7393 9.42057 11.5597 9.77983C11.38 10.1391 10.9431 10.2847 10.5838 10.1051L7.67472 8.65057C7.42833 8.52737 7.27273 8.27547 7.27273 8V3.63636C7.27273 3.2347 7.59834 2.90909 8 2.90909Z" fill="#3B2519"/>
<path fill-rule="evenodd" clip-rule="evenodd" d="M8 0C12.4183 0 16 3.58172 16 8C16 12.4183 12.4183 16 8 16C3.58172 16 0 12.4183 0 8C0 3.58172 3.58172 0 8 0ZM8 1.45455C4.38505 1.45455 1.45455 4.38505 1.45455 8C1.45455 11.615 4.38505 14.5455 8 14.5455C11.615 14.5455 14.5455 11.615 14.5455 8C14.5455 4.38505 11.615 1.45455 8 1.45455Z" fill="#3B2519"/>
</svg>
