<svg width="20" height="20" viewBox="0 0 20 20" fill="none" xmlns="http://www.w3.org/2000/svg">
<g clip-path="url(#clip0_1_1283)">
<path d="M6.45949 15.7154C6.46986 15.7011 6.48103 15.6875 6.4922 15.6747C7.47596 14.4412 8.45015 13.0025 8.45015 11.9336C8.45015 11.0316 8.08472 10.216 7.4951 9.62399C6.90469 9.03283 6.08927 8.66774 5.18847 8.66774C4.28767 8.66774 3.47228 9.03363 2.88184 9.62399C2.29143 10.2152 1.92679 11.0316 1.92679 11.9336C1.92679 13.0033 2.90018 14.4413 3.88395 15.6747C3.89592 15.6883 3.90709 15.7019 3.91746 15.7162C4.29645 16.19 4.67542 16.6318 4.99937 17.0088L5.18846 17.2293L5.37676 17.0088C5.70068 16.6317 6.08047 16.1892 6.45946 15.7162L6.45949 15.7154ZM19.0625 4.20446C19.0625 3.30252 18.6971 2.48609 18.1075 1.8949C17.5171 1.30374 16.7016 0.938642 15.8008 0.938642C14.9 0.938642 14.0846 1.30454 13.4942 1.8949C12.9038 2.48607 12.5392 3.30252 12.5392 4.20446C12.5392 5.69757 14.4381 7.91125 15.6126 9.27964L15.8017 9.50013L15.9907 9.27964C17.1652 7.91117 19.0641 5.6974 19.0641 4.20446H19.0625ZM18.7705 1.23187C19.5301 1.99241 20 3.04373 20 4.20446C20 6.04188 17.9607 8.41844 16.7001 9.88847C16.4886 10.1345 16.2996 10.355 16.1671 10.5164C16.1472 10.5412 16.124 10.5651 16.0977 10.5867C15.8982 10.7505 15.6038 10.7217 15.4402 10.522C15.307 10.359 15.1155 10.1369 14.9025 9.88766C13.6419 8.41853 11.6026 6.04099 11.6026 4.20365C11.6026 3.04288 12.0725 1.99164 12.8321 1.23106C13.5916 0.470481 14.6416 0 15.8009 0C16.9602 0 18.0101 0.470542 18.7705 1.23106L18.7705 1.23187ZM15.8009 5.44278C16.1424 5.44278 16.4519 5.30378 16.6753 5.0801C16.8987 4.85642 17.0375 4.54645 17.0375 4.20454C17.0375 3.86264 16.8987 3.55266 16.6753 3.32898C16.4519 3.10531 16.1423 2.9663 15.8009 2.9663C15.4594 2.9663 15.1498 3.10531 14.9264 3.32898C14.703 3.55266 14.5642 3.86264 14.5642 4.20454C14.5642 4.54645 14.703 4.85643 14.9264 5.0801C15.1498 5.30378 15.4594 5.44278 15.8009 5.44278ZM17.3383 5.74397C16.945 6.13782 16.4017 6.38148 15.8009 6.38148C15.2001 6.38148 14.6567 6.13782 14.2642 5.74397C13.8708 5.35012 13.6275 4.8061 13.6275 4.20454C13.6275 3.60299 13.8708 3.05895 14.2642 2.66591C14.6575 2.27206 15.2009 2.02841 15.8009 2.02841C16.4017 2.02841 16.945 2.27206 17.3383 2.66591C17.7317 3.05976 17.975 3.60379 17.975 4.20454C17.975 4.8061 17.7317 5.35014 17.3383 5.74397ZM11.9042 18.1706C11.6457 18.1706 11.435 17.9605 11.435 17.7008C11.435 17.442 11.6449 17.2311 11.9042 17.2311H15.3334V12.3643C15.3334 12.1055 15.5432 11.8945 15.8025 11.8945C16.061 11.8945 16.2717 12.1046 16.2717 12.3643V17.7C16.2717 17.9588 16.0619 18.1698 15.8025 18.1698H11.905L11.9042 18.1706ZM7.68023 15.6661C8.31692 15.8115 8.86984 16.0112 9.2975 16.2509C9.97887 16.6311 10.3778 17.1288 10.3778 17.7016C10.3778 18.4198 9.73475 19.0286 8.69512 19.4312C7.78795 19.7827 6.54801 20 5.18932 20C3.83056 20 2.58979 19.7827 1.6827 19.4312C0.643091 19.0278 0 18.4198 0 17.7016C0 17.1296 0.399724 16.6319 1.08032 16.2509C1.50878 16.0112 2.06089 15.8115 2.69759 15.6661C1.79042 14.4478 0.989362 13.0849 0.989362 11.9329C0.989362 10.7722 1.45931 9.72092 2.21886 8.96034C2.97842 8.19975 4.02922 7.72927 5.1885 7.72927C6.3478 7.72927 7.3977 8.19982 8.15732 8.96034C8.91694 9.72086 9.38682 10.773 9.38682 11.9329C9.38682 13.0841 8.58656 14.447 7.67859 15.6661H7.68023ZM3.34393 16.4921C2.60431 16.6208 1.97958 16.8205 1.53596 17.0689C1.15936 17.279 0.938359 17.4995 0.938359 17.7016C0.938359 17.994 1.35165 18.3 2.02027 18.5588C2.82213 18.8696 3.94151 19.0613 5.18946 19.0613C6.43741 19.0613 7.55757 18.8696 8.35865 18.5588C9.02726 18.3 9.44056 17.9932 9.44056 17.7016C9.44056 17.4995 9.22036 17.2798 8.84375 17.0689C8.40014 16.8213 7.77541 16.6208 7.03579 16.4921C6.70149 16.9028 6.37515 17.2838 6.08873 17.6178C5.8781 17.8638 5.68821 18.0843 5.55575 18.2457C5.5358 18.2704 5.51266 18.2944 5.48633 18.316C5.28687 18.4797 4.99245 18.451 4.8297 18.2513C4.69646 18.0883 4.50498 17.8662 4.29115 17.6169C4.00472 17.283 3.67839 16.902 3.34409 16.4913L3.34393 16.4921ZM5.1902 13.1721C5.53169 13.1721 5.84125 13.0331 6.06464 12.8094C6.28804 12.5857 6.42687 12.2757 6.42687 11.9338C6.42687 11.5919 6.28804 11.282 6.06464 11.0583C5.84125 10.8346 5.53167 10.6956 5.1902 10.6956C4.84872 10.6956 4.53914 10.8346 4.31575 11.0583C4.09236 11.282 3.95352 11.5919 3.95352 11.9338C3.95352 12.2757 4.09235 12.5857 4.31575 12.8094C4.53914 13.0331 4.84872 13.1721 5.1902 13.1721ZM6.72687 13.4733C6.33352 13.8671 5.79019 14.1108 5.1902 14.1108C4.58941 14.1108 4.04605 13.8671 3.65272 13.4733C3.25939 13.0794 3.01602 12.5354 3.01602 11.9338C3.01602 11.3323 3.25937 10.7882 3.65272 10.3952C4.04607 10.0014 4.58941 9.75771 5.1902 9.75771C5.79099 9.75771 6.33434 10.0014 6.72687 10.3952C7.12022 10.7891 7.36357 11.3331 7.36357 11.9338C7.36357 12.5354 7.12022 13.0794 6.72687 13.4733Z" fill="#3B2519"/>
</g>
<defs>
<clipPath id="clip0_1_1283">
<rect width="20" height="20" fill="white"/>
</clipPath>
</defs>
</svg>
