<svg width="18" height="20" viewBox="0 0 18 20" fill="none" xmlns="http://www.w3.org/2000/svg">
<path fill-rule="evenodd" clip-rule="evenodd" d="M8.99999 5C10.8409 5 12.3333 6.49238 12.3333 8.33333C12.3333 10.1743 10.8409 11.6667 8.99999 11.6667C7.15904 11.6667 5.66666 10.1743 5.66666 8.33333C5.66666 6.49238 7.15904 5 8.99999 5ZM8.99999 6.66667C8.07951 6.66667 7.33332 7.41286 7.33332 8.33333C7.33332 9.25381 8.07951 10 8.99999 10C9.92046 10 10.6667 9.25381 10.6667 8.33333C10.6667 7.41286 9.92046 6.66667 8.99999 6.66667Z" fill="#3B2519"/>
<path fill-rule="evenodd" clip-rule="evenodd" d="M8.99999 0C11.2101 0 13.3299 0.877789 14.8927 2.44059C16.4555 4.0034 17.3333 6.1232 17.3333 8.33333C17.3333 11.585 15.2628 14.4963 13.3546 16.5104C12.3836 17.5354 11.4156 18.3692 10.6911 18.9461C10.3283 19.235 10.0249 19.4611 9.81054 19.6159C9.70348 19.6932 9.61825 19.7531 9.55907 19.7941C9.5296 19.8145 9.50611 19.8303 9.4899 19.8413C9.48178 19.8468 9.47497 19.8512 9.47037 19.8543C9.46813 19.8558 9.46604 19.8575 9.46467 19.8584L9.46304 19.8592C9.4628 19.8594 9.46224 19.86 8.99999 19.1667L9.46223 19.86C9.18231 20.0466 8.81767 20.0466 8.53775 19.86L8.99999 19.1667C8.53774 19.86 8.53799 19.8602 8.53775 19.86L8.53694 19.8592L8.53531 19.8584C8.53394 19.8575 8.53185 19.8558 8.52961 19.8543C8.52501 19.8512 8.51819 19.8468 8.51008 19.8413C8.49387 19.8303 8.47038 19.8145 8.44091 19.7941C8.38173 19.7531 8.2965 19.6932 8.18944 19.6159C7.97509 19.4611 7.67169 19.235 7.30891 18.9461C6.58435 18.3692 5.6164 17.5354 4.64533 16.5104C2.73718 14.4963 0.666656 11.585 0.666656 8.33333C0.666657 6.1232 1.54445 4.0034 3.10725 2.44059C4.67005 0.877789 6.78985 0 8.99999 0ZM8.99999 1.66667C7.23188 1.66667 5.53588 2.36874 4.28563 3.61898C3.03539 4.86922 2.33332 6.56522 2.33332 8.33333C2.33332 10.915 4.01282 13.4204 5.85464 15.3646C6.75853 16.3187 7.66565 17.0996 8.34732 17.6424C8.60059 17.8441 8.82267 18.011 8.99999 18.1421C9.17731 18.011 9.39939 17.8441 9.65266 17.6424C10.3343 17.0996 11.2415 16.3187 12.1453 15.3646C13.9872 13.4204 15.6667 10.915 15.6667 8.33333C15.6667 6.56522 14.9646 4.86922 13.7143 3.61898C12.4641 2.36874 10.7681 1.66667 8.99999 1.66667Z" fill="#3B2519"/>
</svg>
