<svg width="24" height="25" viewBox="0 0 24 25" fill="none" xmlns="http://www.w3.org/2000/svg">
<path d="M21.5723 1.64408C21.9542 1.46324 22.4082 1.54157 22.707 1.84037C23.0058 2.13917 23.0842 2.59323 22.9033 2.97513L13.9033 21.9751C13.7225 22.3568 13.3217 22.5841 12.9014 22.5425C12.4811 22.5009 12.1327 22.1993 12.0303 21.7896L10.1758 14.3716L2.75782 12.5171C2.34808 12.4147 2.04654 12.0663 2.00489 11.646C1.96327 11.2257 2.19055 10.8249 2.57227 10.6441L21.5723 1.64408ZM5.95117 11.2544L11.2422 12.5777L11.373 12.6197C11.6678 12.7381 11.8914 12.9917 11.9697 13.3052L13.292 18.5952L19.8984 4.64798L5.95117 11.2544Z" fill="#0242A3"/>
</svg>
