<svg width="21" height="18" viewBox="0 0 21 18" fill="none" xmlns="http://www.w3.org/2000/svg">
<path d="M11.3333 10.6665C12.4384 10.6665 13.4979 11.1058 14.2793 11.8872C15.0607 12.6686 15.5 13.7281 15.5 14.8332V16.4998C15.5 16.9601 15.1269 17.3332 14.6667 17.3332C14.2064 17.3332 13.8333 16.9601 13.8333 16.4998V14.8332C13.8333 14.1701 13.5698 13.5344 13.1009 13.0656C12.6907 12.6554 12.1529 12.4023 11.5807 12.3454L11.3333 12.3332H4.66667C4.00363 12.3332 3.36793 12.5968 2.89909 13.0656C2.43025 13.5344 2.16667 14.1701 2.16667 14.8332V16.4998C2.16667 16.9601 1.79357 17.3332 1.33333 17.3332C0.873096 17.3332 0.5 16.9601 0.5 16.4998V14.8332C0.5 13.7281 0.939302 12.6686 1.7207 11.8872C2.5021 11.1058 3.5616 10.6665 4.66667 10.6665H11.3333Z" fill="#3B2519"/>
<path d="M16.3602 11.3997C16.4753 10.9542 16.9294 10.6866 17.375 10.8016C18.2688 11.0324 19.0612 11.5531 19.6268 12.2827C20.1923 13.0123 20.4993 13.9093 20.5 14.8324V16.4998C20.4999 16.96 20.1269 17.3332 19.6667 17.3332C19.2065 17.3332 18.8334 16.96 18.8333 16.4998V14.834L18.8244 14.6273C18.7842 14.1471 18.6062 13.6872 18.3092 13.304C17.9699 12.8663 17.4947 12.553 16.9583 12.4146C16.5128 12.2994 16.2451 11.8453 16.3602 11.3997Z" fill="#3B2519"/>
<path fill-rule="evenodd" clip-rule="evenodd" d="M8 0.666504C10.3012 0.666504 12.1667 2.53198 12.1667 4.83317C12.1667 7.13436 10.3012 8.99984 8 8.99984C5.69881 8.99984 3.83333 7.13436 3.83333 4.83317C3.83333 2.53198 5.69881 0.666504 8 0.666504ZM8 2.33317C6.61929 2.33317 5.5 3.45246 5.5 4.83317C5.5 6.21388 6.61929 7.33317 8 7.33317C9.38071 7.33317 10.5 6.21388 10.5 4.83317C10.5 3.45246 9.38071 2.33317 8 2.33317Z" fill="#3B2519"/>
<path d="M13.026 1.40137C13.1402 0.955516 13.5942 0.686625 14.04 0.800781C14.9363 1.03026 15.731 1.55187 16.2983 2.28271C16.8654 3.01349 17.1732 3.91223 17.1732 4.83724L17.1699 5.01058C17.134 5.87409 16.8299 6.70673 16.2983 7.39176C15.731 8.1226 14.9363 8.64422 14.04 8.8737C13.5942 8.98785 13.1402 8.71896 13.026 8.27311C12.9119 7.82726 13.1808 7.37327 13.6266 7.25911C14.1644 7.12143 14.6412 6.80891 14.9816 6.37044C15.2794 5.98683 15.4575 5.52575 15.4976 5.04476L15.5065 4.83724C15.5065 4.28213 15.322 3.74254 14.9816 3.30404C14.6412 2.86557 14.1644 2.55305 13.6266 2.41536C13.1808 2.30121 12.9119 1.84722 13.026 1.40137Z" fill="#3B2519"/>
</svg>
