<svg width="60" height="46" viewBox="0 0 60 46" fill="none" xmlns="http://www.w3.org/2000/svg">
<path d="M3.81172 1.62825C4.2909 0.394814 5.63416 -0.223305 6.8999 0.0735794L19.9921 2.27064C20.5239 2.37049 20.9809 2.64045 21.3603 2.9616C21.7148 3.23147 22.0445 3.57704 22.2965 4.04663C22.2965 4.04663 26.1713 11.7201 27.5644 14.484L35.6158 17.4206C38.0721 18.2845 36.9561 21.9602 34.4249 21.418L24.6756 19.3936C23.9141 19.2209 23.3075 18.7295 22.9778 18.1116L22.8754 17.9388L20.9504 14.1142L14.8738 22.036L25.814 24.2574H25.7697C27.2376 24.4544 28.4035 25.6394 28.4535 27.0455L29.3398 43.5289C29.4145 44.8109 28.4036 45.923 27.0603 45.9958C25.8197 46.0686 24.731 45.1806 24.5538 43.9958L22.4267 30.2008L15.2089 29.3857C16.3971 32.2706 17.5881 35.1342 18.6516 38.0706C19.1584 39.4769 18.3469 41.0585 16.879 41.4769L3.40735 45.4499C2.14158 45.8197 0.823251 45.1288 0.443804 43.8953C0.0645834 42.7131 0.720884 41.4769 1.8868 41.0585L11.7634 37.4795C9.55895 34.0491 7.4323 30.4698 5.40774 27.0152C2.87627 23.5362 2.85131 18.4537 5.53515 15.0231C7.96369 12.3595 10.4978 9.74428 13.0541 7.20187L13.3588 6.85638L7.86375 5.94409L4.01391 12.484C2.72044 14.7049 -0.796679 13.029 0.164067 10.6837L3.81172 1.62825Z" fill="#FF9603"/>
<path d="M36.4994 24.2817C37.2582 23.3452 38.4493 22.727 39.6651 23.1211C40.9807 23.5151 41.6648 24.3304 41.8947 26.0334C41.9445 26.4031 41.9445 26.773 41.8947 27.1184C42.5289 31.3884 45.7195 31.9795 46.7056 32.0793C48.6803 32.1522 49.694 31.9552 53.1617 31.0429C53.1636 31.0429 53.212 31.0419 53.2365 30.9943C54.6295 30.6002 55.8953 29.9093 56.6293 28.7244C57.3383 27.615 57.5156 26.0603 57.3134 24.7027C57.1862 23.9876 58.327 23.7663 58.5044 24.4571C59.3408 27.0239 58.5044 29.7879 56.6044 31.5638C57.6181 32.2791 58.2496 33.464 58.2496 34.8459V35.0915C58.352 37.3615 57.186 38.9648 56.2249 39.904C57.3135 42.6678 59.9972 43.9769 59.9972 43.9769L60 44.0012L59.6704 45.8771L54.5299 45.8285C54.5798 43.9322 56.296 44.052 56.3025 44.0525C55.5935 42.892 54.6573 42.0282 53.6187 41.3885C51.1746 42.8117 50.3615 45.6777 50.3532 45.707L45.7196 45.7556C45.922 43.9555 48.4533 43.7313 48.4533 43.7313C49.237 42.6463 49.7689 41.634 50.0984 40.6462C47.3466 39.7129 45.175 40.0019 45.1601 40.0039C40.5682 40.2002 38.8412 45.7635 38.8287 45.8042H33.9928C34.1952 44.0284 37.1336 43.4587 37.1336 43.4587C40.2216 39.24 38.5267 33.2186 37.4632 30.3546C38.704 30.0334 39.7177 29.4909 40.3492 29.0456C40.6012 28.8728 40.6788 28.503 40.4766 28.2547C40.2744 28.0092 39.9198 27.9337 39.6651 28.1306C39.1832 28.4518 38.247 29.0186 37.0062 29.2912C33.4112 28.5759 33.2588 24.2817 33.2588 24.2817H36.4994Z" fill="#FF9603"/>
<path d="M26.5763 4.81317C27.5624 2.39477 30.3735 1.23421 32.8552 2.19776C35.3367 3.15873 36.5277 5.89825 35.539 8.31659C34.5529 10.7349 31.7417 11.8955 29.2601 10.932C26.7785 9.97109 25.5877 7.23153 26.5763 4.81317Z" fill="#FF9603"/>
</svg>
